<?xml version="1.0" standalone="no"?>
<!DOCTYPE svg PUBLIC "-//W3C//DTD SVG 20010904//EN"
 "http://www.w3.org/TR/2001/REC-SVG-20010904/DTD/svg10.dtd">
<svg version="1.0" xmlns="http://www.w3.org/2000/svg"
 width="300.000000pt" height="300.000000pt" viewBox="0 0 300.000000 300.000000"
 preserveAspectRatio="xMidYMid meet">

<g transform="translate(0.000000,300.000000) scale(0.100000,-0.100000)"
fill="#000000" stroke="none">
<path d="M1377 2864 c-312 -48 -624 -191 -851 -389 -275 -241 -423 -525 -457
-878 -56 -570 308 -1144 866 -1368 393 -157 877 -142 1240 38 396 197 662 525
766 943 22 86 24 116 23 320 0 211 -2 231 -27 325 -35 131 -98 256 -196 385
-75 99 -245 279 -255 269 -2 -2 27 -47 65 -99 194 -270 268 -516 240 -804 -25
-265 -109 -434 -309 -628 -139 -133 -278 -219 -437 -266 -62 -19 -178 -42
-212 -42 -28 0 -10 20 40 47 34 19 57 39 67 60 15 33 33 42 45 23 3 -5 17 -10
30 -10 35 0 71 62 97 168 30 124 30 398 0 523 -24 98 -51 151 -86 167 -23 10
-24 14 -18 78 4 49 2 65 -7 60 -6 -4 -11 -13 -11 -20 0 -23 -76 -93 -115 -106
-20 -7 -64 -10 -96 -8 -73 5 -122 41 -159 114 -50 98 -20 216 69 279 38 27 51
30 115 30 63 0 78 -4 113 -28 40 -28 83 -91 83 -121 0 -10 4 -15 9 -11 9 5 16
63 25 208 3 60 1 80 -10 92 -25 24 -46 18 -99 -30 l-50 -45 -332 0 -332 0 -75
76 c-56 56 -81 75 -97 72 -38 -5 -45 -30 -30 -105 12 -64 28 -197 30 -253 1
-20 6 -16 25 25 38 81 112 135 184 135 55 0 121 -30 157 -73 89 -103 67 -259
-47 -334 -34 -23 -52 -28 -102 -28 -92 1 -143 34 -192 125 l-25 45 4 -100 c3
-100 3 -100 -27 -130 -74 -74 -102 -308 -70 -584 l6 -46 -51 55 c-178 193
-264 424 -265 705 0 306 109 566 323 768 289 272 645 354 1119 257 75 -16 82
-9 23 23 -172 94 -468 131 -724 91z m236 -1400 c77 -20 140 -52 195 -99 63
-55 70 -74 73 -216 l4 -126 -42 -55 c-50 -66 -144 -132 -221 -154 -154 -45
-323 29 -401 175 -29 54 -31 66 -31 155 0 111 11 145 66 206 51 56 105 90 179
111 76 22 103 23 178 3z"/>
<path d="M1163 2018 c-88 -54 -108 -189 -41 -274 25 -31 91 -63 132 -64 107
-1 200 131 166 234 -14 45 -53 92 -91 111 -40 21 -127 18 -166 -7z m179 -45
c37 -33 11 -103 -38 -103 -49 0 -72 64 -37 102 20 22 51 23 75 1z"/>
<path d="M1708 2015 c-70 -48 -96 -149 -59 -230 22 -48 44 -69 94 -90 49 -20
79 -19 132 6 48 23 87 76 100 136 13 66 -32 155 -96 188 -46 24 -128 19 -171
-10z m83 -55 c24 -13 26 -72 3 -94 -33 -34 -94 -7 -94 42 0 50 46 76 91 52z"/>
</g>
</svg>
