<?xml version="1.0" standalone="no"?>
<!DOCTYPE svg PUBLIC "-//W3C//DTD SVG 20010904//EN"
 "http://www.w3.org/TR/2001/REC-SVG-20010904/DTD/svg10.dtd">
<svg version="1.0" xmlns="http://www.w3.org/2000/svg"
 width="937.000000pt" height="300.000000pt" viewBox="0 0 937.000000 300.000000"
 preserveAspectRatio="xMidYMid meet">

<g transform="translate(0.000000,300.000000) scale(0.100000,-0.100000)"
fill="#000000" stroke="none">
<path d="M1515 2993 c-96 -9 -270 -48 -395 -89 -578 -192 -980 -611 -1091
-1137 -29 -135 -32 -408 -6 -537 92 -459 404 -861 828 -1067 345 -168 778
-208 1162 -108 472 122 875 476 1051 921 141 357 135 817 -15 1117 -77 154
-258 378 -404 500 -43 36 -46 38 -27 12 129 -172 171 -238 227 -350 35 -71 77
-170 92 -220 26 -85 27 -101 27 -295 1 -227 -12 -307 -74 -452 -93 -217 -320
-452 -550 -568 -130 -65 -315 -120 -406 -120 -39 0 -28 19 24 41 62 27 90 54
98 96 6 33 7 33 21 14 20 -30 67 -27 92 5 28 35 56 115 72 204 20 106 17 391
-4 495 -20 96 -63 186 -95 200 -23 10 -23 14 -20 97 l3 88 -22 -46 c-29 -60
-39 -72 -92 -106 -39 -24 -55 -28 -117 -28 -64 0 -77 3 -120 33 -32 21 -59 50
-76 82 -58 106 -25 254 70 320 40 27 51 30 127 30 77 0 87 -2 127 -30 59 -42
97 -114 98 -184 0 -101 8 -47 20 145 13 211 10 234 -36 234 -17 0 -45 -17 -81
-50 l-55 -50 -356 0 -356 0 -84 85 c-85 86 -104 96 -136 72 -24 -17 -23 -42 3
-150 14 -60 21 -125 22 -200 1 -89 3 -103 9 -67 12 65 24 93 62 135 122 139
350 75 388 -109 42 -204 -149 -358 -330 -266 -48 25 -75 56 -103 120 l-25 55
6 -115 5 -115 -36 -36 c-41 -41 -61 -100 -78 -228 -12 -92 -6 -347 10 -413 5
-21 5 -38 0 -38 -15 0 -144 159 -187 230 -124 208 -178 457 -154 709 28 281
132 502 326 696 318 317 743 416 1261 295 44 -10 82 -17 83 -15 10 9 -212 106
-283 124 -142 36 -333 49 -500 34z m259 -1556 c78 -36 147 -88 178 -134 23
-35 26 -50 32 -174 l6 -136 -29 -45 c-64 -101 -189 -186 -305 -207 -161 -30
-326 61 -408 223 -30 59 -30 61 -23 165 10 146 46 211 155 281 77 49 122 60
235 57 84 -2 109 -7 159 -30z"/>
<path d="M1260 2081 c-93 -29 -140 -91 -140 -186 0 -44 6 -69 25 -100 75 -128
254 -117 316 20 48 106 -9 234 -119 265 -42 11 -47 11 -82 1z m142 -102 c39
-52 -23 -120 -76 -85 -34 22 -43 59 -21 92 21 33 70 30 97 -7z"/>
<path d="M1846 2078 c-22 -6 -55 -27 -76 -48 -76 -76 -75 -195 1 -271 104
-104 261 -56 300 93 36 135 -89 261 -225 226z m38 -83 c23 -23 28 -52 15 -77
-15 -29 -28 -38 -56 -38 -22 0 -63 42 -63 65 0 7 9 24 21 39 23 29 59 34 83
11z"/>
<path d="M3415 1221 c-51 -13 -90 -38 -129 -82 -75 -82 -101 -185 -94 -366 6
-137 27 -205 85 -273 100 -117 301 -123 423 -13 l52 47 -4 -110 c-3 -86 -8
-117 -25 -150 -27 -51 -79 -98 -130 -115 -57 -20 -186 -16 -258 9 -33 11 -61
20 -61 19 -1 -1 -4 -10 -6 -21 -4 -24 45 -42 152 -55 134 -17 235 11 298 84
68 77 67 63 70 563 3 389 1 452 -12 452 -10 0 -16 -18 -21 -61 l-7 -60 -34 40
c-47 54 -124 90 -204 96 -36 2 -78 1 -95 -4z m146 -42 c40 -9 64 -22 102 -57
84 -79 87 -91 87 -320 l0 -199 -29 -40 c-55 -76 -132 -113 -235 -113 -77 0
-131 24 -177 78 -52 60 -71 121 -76 245 -9 170 23 281 100 355 59 57 128 72
228 51z"/>
<path d="M4265 1221 c-63 -16 -131 -68 -163 -126 l-17 -30 -5 70 c-4 56 -8 70
-22 73 -17 3 -18 -21 -18 -392 0 -389 0 -396 20 -396 19 0 20 7 20 268 0 256
1 269 24 323 48 118 110 168 222 177 53 4 64 8 62 21 -4 18 -71 25 -123 12z"/>
<path d="M4698 1217 c-94 -27 -162 -97 -170 -177 -2 -26 1 -35 15 -38 12 -2
17 3 17 18 0 36 39 99 78 125 75 50 210 57 291 15 81 -41 114 -110 109 -228
l-3 -67 -175 -5 c-149 -5 -182 -8 -221 -26 -54 -25 -115 -77 -133 -113 -40
-80 -25 -181 38 -246 51 -54 102 -69 213 -63 100 5 193 46 248 110 l35 42 1
-45 c2 -68 12 -94 38 -97 20 -3 22 -1 15 15 -4 10 -11 153 -14 318 -4 266 -7
304 -24 338 -23 47 -84 100 -133 116 -59 19 -172 23 -225 8z m342 -482 c0 -99
-15 -138 -77 -197 -108 -105 -320 -119 -397 -27 -84 100 -35 233 106 288 45
17 77 20 211 20 l157 1 0 -85z"/>
<path d="M5470 1214 c-101 -27 -160 -97 -160 -189 0 -108 67 -165 249 -210
123 -30 200 -70 229 -117 33 -54 35 -88 10 -138 -38 -75 -110 -110 -224 -110
-124 0 -219 50 -243 130 -7 25 -18 40 -28 40 -13 0 -15 -8 -10 -40 13 -96 112
-161 257 -168 143 -7 242 36 287 122 22 43 20 137 -4 178 -26 46 -103 94 -184
118 -38 11 -101 29 -140 41 -99 28 -150 76 -156 145 -6 61 22 107 87 144 64
35 192 36 263 1 56 -27 107 -90 107 -133 0 -22 5 -28 21 -28 20 0 21 4 15 47
-11 82 -73 142 -172 168 -72 18 -132 18 -204 -1z"/>
<path d="M6305 1221 c-56 -14 -104 -43 -145 -87 -22 -24 -43 -44 -45 -44 -3 0
-5 27 -5 60 0 44 -4 60 -13 60 -20 0 -28 -268 -20 -718 6 -352 7 -372 25 -372
17 0 18 13 18 204 l0 203 37 -35 c64 -60 114 -77 224 -77 89 0 99 2 145 30 94
58 142 162 151 326 13 233 -67 401 -211 444 -52 16 -111 18 -161 6z m158 -47
c63 -21 119 -86 149 -172 30 -88 33 -276 5 -364 -22 -74 -71 -137 -127 -166
-39 -20 -56 -23 -125 -19 -88 4 -130 20 -183 71 -60 56 -62 65 -62 289 l0 203
29 45 c40 62 72 89 133 110 66 23 121 24 181 3z"/>
<path d="M8197 1220 c-108 -28 -187 -107 -187 -190 0 -46 27 -38 41 12 25 95
138 157 263 144 81 -8 141 -39 174 -89 24 -36 27 -52 30 -138 l4 -97 -175 -4
-174 -3 -69 -35 c-49 -25 -77 -47 -99 -78 -27 -39 -30 -52 -30 -115 0 -93 24
-141 90 -182 46 -28 54 -30 154 -30 96 0 112 3 162 28 31 15 75 47 97 71 l40
44 7 -52 c9 -75 14 -86 37 -86 17 0 19 4 13 28 -4 15 -10 160 -14 323 l-6 296
-30 49 c-42 67 -112 102 -215 109 -41 2 -92 0 -113 -5z m323 -492 c0 -80 -3
-97 -25 -134 -53 -90 -159 -144 -282 -144 -74 0 -117 16 -155 56 -95 102 -44
241 109 296 37 13 83 17 201 18 l152 0 0 -92z"/>
<path d="M6833 1198 c2 -7 48 -164 101 -348 128 -443 124 -430 146 -430 16 0
35 49 119 308 55 169 106 328 113 355 6 26 15 47 19 47 4 0 10 -17 14 -37 3
-21 54 -181 112 -356 96 -291 106 -318 126 -315 18 3 34 47 133 388 62 212
113 388 114 393 0 4 -10 7 -23 7 -21 0 -28 -19 -111 -312 -49 -172 -94 -333
-101 -358 -11 -37 -14 -42 -21 -25 -4 10 -55 170 -114 355 -99 314 -107 335
-129 335 -22 0 -30 -22 -134 -352 -62 -194 -114 -353 -117 -353 -4 0 -14 33
-23 72 -10 40 -54 200 -99 356 -78 270 -82 282 -106 282 -15 0 -22 -5 -19 -12z"/>
<path d="M8866 825 c85 -212 154 -391 154 -399 0 -24 -60 -173 -83 -207 -35
-51 -70 -72 -124 -73 -43 -1 -62 -9 -63 -27 0 -14 64 -18 108 -8 56 12 95 46
129 114 21 40 155 387 358 923 l24 62 -23 0 c-21 0 -34 -30 -156 -347 -72
-192 -135 -353 -139 -360 -3 -6 -71 150 -149 348 -131 328 -146 359 -167 359
-22 0 -15 -20 131 -385z"/>
</g>
</svg>
